PathFileType	4	(X/Y/Z)	 s07c0402.trc
DataRate	CameraRate	NumFrames	NumMarkers	Units	OrigDataRate	OrigDataStartFrame	OrigNumFrames
200	200	4	48	mm	200	1001	2000
Frame#	Time	racr			lacr			c7			jug			rlel			rdr			llel			ldr			s2			lic			ric			lasi			rasi			rpsi			lpsi			rgt			lgt			rth1			rth2			rth3			rth4			rlfc			rmfc			rsh1			rsh2			rsh3			rsh4			rlmal			rcal			rtoe			rmt5			lth1			lth2			lth4			lth3			llfc			lmfc			lsh1			lsh2			lsh3			lsh4			llmal			lcal			ltoe			lmt5			SBIKE			LBIKE			RBIKE			
		X1	Y1	Z1	X2	Y2	Z2	X3	Y3	Z3	X4	Y4	Z4	X5	Y5	Z5	X6	Y6	Z6	X7	Y7	Z7	X8	Y8	Z8	X9	Y9	Z9	X10	Y10	Z10	X11	Y11	Z11	X12	Y12	Z12	X13	Y13	Z13	X14	Y14	Z14	X15	Y15	Z15	X16	Y16	Z16	X17	Y17	Z17	X18	Y18	Z18	X19	Y19	Z19	X20	Y20	Z20	X21	Y21	Z21	X22	Y22	Z22	X23	Y23	Z23	X24	Y24	Z24	X25	Y25	Z25	X26	Y26	Z26	X27	Y27	Z27	X28	Y28	Z28	X29	Y29	Z29	X30	Y30	Z30	X31	Y31	Z31	X32	Y32	Z32	X33	Y33	Z33	X34	Y34	Z34	X35	Y35	Z35	X36	Y36	Z36	X37	Y37	Z37	X38	Y38	Z38	X39	Y39	Z39	X40	Y40	Z40	X41	Y41	Z41	X42	Y42	Z42	X43	Y43	Z43	X44	Y44	Z44	X45	Y45	Z45	X46	Y46	Z46	X47	Y47	Z47	X48	Y48	Z48	
1001	5.0050	782.321530	1414.313392	-25.052483	835.843815	1390.980064	-342.740935	811.879478	1451.847245	-189.297543	754.323985	1311.195303	-193.138575	525.926121	1161.787050	46.235851	695.460832	944.625832	-41.945289	595.182403	1189.399542	-522.665720	701.596082	937.241997	-435.816232	225.532112	1308.119123	-295.883720	411.892222	1303.456466	-415.806120	370.675306	1328.460499	-127.785789	415.110430	1222.633232	-382.882397	384.252181	1274.398751	-140.065221	254.723795	1346.308516	-246.073528	283.140051	1339.444280	-352.104580	298.629841	1224.353276	-83.477269	310.334689	1161.858940	-437.820538	409.078383	1115.916270	-62.329186	480.621059	1064.854781	-62.455630	518.786526	989.355234	-53.022806	508.069382	1085.786308	-79.703789	592.404252	865.142496	-74.424648	587.339814	848.728970	-181.788747	489.231171	766.697126	-53.286703	440.851544	695.041977	-70.871141	362.722068	654.170390	-68.581904	453.603829	684.762068	-109.001847	252.482252	561.000837	-71.000694	172.509728	549.307659	-100.829642	431.884616	419.709623	-118.907783	347.771239	414.349938	-46.804867	321.262631	1041.738188	-434.331521	352.303483	960.127608	-423.785907	385.407075	964.249687	-410.768361	337.714731	872.722110	-419.279020	333.866980	698.384619	-387.265474	311.730492	688.411886	-295.671546	233.550223	589.083092	-410.595655	196.011870	513.987076	-391.945500	123.689889	460.748687	-399.379231	206.207265	517.912998	-349.939728	29.442712	361.940506	-397.877075	-47.864171	369.921662	-362.789336	163.384387	170.916475	-355.470400	86.891018	203.279637	-417.580369	-258.825308	972.740463	-232.105473	-75.722361	84.281997	-438.011897	-82.570472	80.051296	-40.378069	
1002	5.0100	783.751835	1409.429989	-24.175125	835.237382	1389.824735	-341.857907	812.156814	1449.652305	-188.050669	753.719690	1309.292702	-192.964354	524.441387	1160.056731	46.396459	695.313809	944.516602	-42.287440	594.919884	1189.051029	-522.527686	701.275545	937.004178	-435.762749	225.413324	1309.601197	-297.061712	412.258407	1306.046584	-415.572780	369.912167	1328.209139	-127.907940	415.443394	1224.748073	-383.358063	383.255641	1274.490015	-140.404813	254.594049	1347.689148	-246.386091	283.195184	1341.433466	-352.736289	296.762054	1224.717778	-84.817182	312.136744	1163.433741	-439.843310	405.544623	1113.887465	-62.835488	475.927806	1061.437647	-62.434928	512.746497	985.067632	-53.608177	501.817181	1081.919664	-78.368045	584.169755	859.507994	-74.469584	579.669842	843.391852	-181.703748	481.694270	759.510945	-53.082030	435.572528	686.294983	-71.180609	358.252565	643.936482	-69.293810	448.453465	676.881539	-109.202387	250.903487	548.362020	-72.235333	171.350413	532.532932	-101.412835	437.227566	416.316132	-117.786203	353.231027	406.810524	-46.206443	325.830509	1042.816086	-434.831893	359.085211	962.233347	-423.243299	391.736185	967.331983	-409.433182	346.714726	874.119221	-418.475770	344.939713	699.445323	-386.834725	322.864696	689.861182	-295.026561	241.551735	592.848969	-410.167749	201.095772	519.178011	-391.723102	126.988176	468.399332	-399.615233	209.396971	522.201881	-349.644394	29.505398	371.902404	-398.647423	-47.951573	382.218180	-362.521016	156.473788	176.235109	-355.200094	81.408580	211.107225	-417.211974	-258.690106	972.877510	-231.895452	-75.735432	84.408958	-437.999954	-82.570013	80.078438	-40.384590	
1003	5.0150	785.007542	1404.588803	-23.618055	834.696532	1389.153667	-341.173463	812.224788	1447.454342	-187.138577	753.353197	1307.463959	-192.879869	522.998950	1158.316017	46.711896	695.189162	944.386769	-42.588941	594.584984	1188.728846	-522.385165	700.898997	936.679516	-435.740261	225.205888	1310.901682	-298.024082	412.739631	1308.212429	-415.411403	369.165501	1327.686774	-127.849848	415.812305	1226.522442	-383.732177	382.357850	1274.267990	-140.736773	254.555219	1348.630177	-246.564344	283.338033	1342.767956	-353.108505	295.052952	1224.742713	-86.015412	313.821170	1164.820456	-441.677201	401.903573	1111.331510	-63.326286	471.302361	1056.853396	-63.273025	505.971085	979.948512	-53.714339	498.365262	1077.415075	-78.749268	575.202245	853.314025	-74.253077	570.988747	837.663487	-181.772258	474.256858	751.052306	-53.539894	430.720137	676.280454	-71.528408	353.692197	632.624071	-70.541658	443.412552	667.755405	-109.703085	249.475074	535.098540	-73.953067	171.083525	515.644248	-103.595604	441.994469	411.785072	-116.329016	357.737698	398.715157	-45.597713	330.856684	1044.024123	-435.682745	366.092185	964.245362	-422.609624	398.197219	970.315105	-408.073667	356.082061	875.885965	-417.730407	355.820748	701.217498	-386.348432	333.783705	691.523362	-294.330096	249.423009	596.676442	-409.603320	206.615587	524.222575	-391.498705	130.910906	476.006761	-399.686306	212.917556	526.591404	-349.361688	30.571162	381.523979	-399.327680	-46.916345	394.746017	-362.750976	150.137284	181.662781	-355.255867	76.657861	218.979248	-417.068715	-258.547379	972.984147	-231.596682	-75.724983	84.550650	-437.973738	-82.578088	80.099204	-40.367028	
1004	5.0200	786.175559	1400.081970	-23.001224	834.134901	1388.633291	-340.703623	812.330454	1445.432405	-185.538438	753.108803	1305.717046	-192.995466	521.689940	1156.603016	47.050218	695.048111	944.244433	-42.866394	594.182395	1188.427997	-522.247496	700.469695	936.330899	-435.678701	225.275951	1311.589471	-298.869938	413.059487	1309.901761	-415.300254	368.649374	1326.516868	-127.951231	416.197138	1227.938411	-384.107727	381.510507	1273.636042	-141.031070	254.610216	1349.162070	-246.360975	283.620122	1343.624723	-352.998018	293.381821	1224.287354	-87.193865	315.481925	1165.833699	-443.307583	398.099742	1108.255215	-63.931391	466.572976	1051.962308	-63.972671	498.794996	974.288648	-53.846358	494.197184	1072.218556	-78.473260	566.272974	846.419346	-74.299966	563.167748	831.511119	-181.128025	467.114287	741.472855	-54.574659	424.674792	666.010501	-72.578829	349.179644	620.688130	-72.306325	438.434595	657.819603	-110.385983	248.221678	521.437570	-75.846195	171.284068	498.368714	-106.545340	446.148700	406.243864	-114.706126	361.564128	390.177866	-45.005113	336.099334	1045.068147	-436.831918	373.091647	966.163369	-422.051254	404.704507	973.312617	-406.777959	365.554460	877.615559	-416.771118	366.291070	703.171138	-386.189417	344.277302	693.272486	-293.365838	257.263916	600.250819	-408.970514	212.223571	529.169156	-391.163380	135.202550	483.115082	-399.605951	216.704998	531.067792	-349.093816	32.296660	391.140688	-399.980622	-44.845382	407.619479	-363.053574	144.280459	187.271649	-355.551146	72.279085	226.899055	-416.758665	-258.428521	973.035262	-231.284190	-75.717212	84.650507	-437.930639	-82.560227	80.099632	-40.334392	
